<svg
    xmlns="http://www.w3.org/2000/svg"
    class="l-spanish"
    fill="none"
    height="24"
    stroke="currentColor"
    stroke-linecap="round"
    stroke-linejoin="round"
    stroke-width="0.5"
    viewBox="0 0 26 26"
    width="26"
>
    <path
    fill="currentColor"
    fill-rule="evenodd"
    d="M6.155 1.001c-1.533-.035-3.042.71-3.999 1.897A5.116 5.116 0 0 0 1.004 6.13c-.002 1.222-.002 2.445-.002 3.668 0 1.223 0 2.445-.002 3.668v.065c0 .279 0 .558.038.837a5.072 5.072 0 0 0 1.083 2.574 5.108 5.108 0 0 0 2.529 1.709c.3.09.604.164.915.181.011.49.01.98.008 1.47a99.51 99.51 0 0 0-.001.815v3.284c-.003.2.09.391.255.503.227.16.555.112.74-.09l5.833-5.835a.217.217 0 0 1 .178-.077h6.756c.521.003 1.044.006 1.557-.101.66-.143 1.3-.405 1.855-.79a5.193 5.193 0 0 0 1.935-2.47 5.115 5.115 0 0 0 .317-1.83L25 11.17c.001-1.693.002-3.385 0-5.076a5.14 5.14 0 0 0-1.677-3.756c-.93-.845-2.176-1.355-3.44-1.334C15.306 1 10.73 1 6.155 1ZM6.4 2.133c-.36-.007-.72.018-1.07.09a3.976 3.976 0 0 0-2.252 1.353 3.97 3.97 0 0 0-.932 2.554v7.616a4.016 4.016 0 0 0 3.597 3.997c.066.006.134.006.202.007.158.001.319.003.465.076a.57.57 0 0 1 .304.528c.002.669.001 1.339 0 2.009 0 .893 0 1.787.004 2.68l1.66-1.66a3425.13 3425.13 0 0 0 3.317-3.32c.15-.16.338-.32.572-.31h7.65c1.393.01 2.738-.81 3.419-2.023.342-.6.524-1.293.52-1.984V6.2a4.002 4.002 0 0 0-2.036-3.546 4.1 4.1 0 0 0-1.973-.52H6.4Z"
    clip-rule="evenodd"
    />
    <path
    fill="currentColor"
    d="m2.156 2.898.077.064.001-.001-.078-.063Zm4-1.897-.003.1h.002v-.1ZM1.003 6.13h.1-.1Zm-.002 3.668h.1-.1ZM1 13.466H.9 1Zm0 .065h.1H1Zm.038.837.1-.012v-.002l-.1.014Zm1.083 2.574.078-.062-.078.062Zm2.529 1.709.029-.096h-.001l-.028.096Zm.915.181.1-.002-.002-.092-.092-.005-.006.1Zm.008 1.47-.1-.001h.1Zm-.001.815h.1-.1Zm0 3.284.1.002V24.4h-.1Zm.255.503.058-.081-.002-.002-.056.083Zm.74-.09-.07-.071-.003.003.073.067Zm5.833-5.835.071.07.002-.002-.073-.068Zm.178-.077-.01.1h.01v-.1Zm6.326 0v.1-.1Zm.43 0-.001.1v-.1Zm1.557-.101.02.098h.001l-.021-.098Zm1.855-.79-.056-.082h-.001l.057.082Zm1.935-2.47.093.035-.093-.035Zm.317-1.83h-.1.1ZM25 11.17h.1-.1Zm0-5.076h.1-.1Zm-1.677-3.756-.067.074.067-.074Zm-3.44-1.334v.1h.001l-.001-.1ZM5.33 2.224l.02.098-.02-.098Zm1.069-.09-.002.1H6.4v-.1ZM3.078 3.575l.077.065-.077-.064ZM2.146 6.13h.1-.1Zm0 7.616h.1-.1Zm1.002 2.658.075-.066-.075.066Zm2.595 1.338-.01.1.01-.1Zm.202.008-.001.1v-.1Zm.465.076.046-.089h-.001l-.045.09Zm.304.528-.1-.005v.005h.1Zm0 2.009h-.1.1Zm.004 2.68h-.1v.24l.17-.17-.07-.07Zm1.66-1.66-.071-.071.07.07Zm3.317-3.32.07.071.003-.002-.073-.068Zm.572-.31-.004.1h.005v-.1Zm7.65 0v-.1.1Zm3.419-2.023-.087-.05v.001l.087.05Zm.52-1.984h-.1.1Zm0-7.546-.1-.001h.1Zm-.17-1.22-.097.03.096-.03ZM21.82 2.654l-.05.086h.001l.049-.086Zm-1.973-.52.001-.1h-.001v.1ZM2.234 2.96c.939-1.165 2.419-1.894 3.919-1.86l.005-.2c-1.567-.035-3.104.724-4.08 1.934l.156.126Zm-1.13 3.168a5.016 5.016 0 0 1 1.13-3.167l-.155-.127A5.216 5.216 0 0 0 .904 6.13h.2Zm-.002 3.669c0-1.223 0-2.445.002-3.668h-.2C.902 7.352.902 8.575.902 9.798h.2ZM1.1 13.466c.002-1.223.002-2.445.002-3.668h-.2c0 1.223 0 2.445-.002 3.668h.2Zm0 .065v-.065H.9v.065h.2Zm.038.823a5.9 5.9 0 0 1-.038-.823H.9c0 .277 0 .563.04.85l.198-.027Zm1.061 2.526a4.971 4.971 0 0 1-1.061-2.524l-.199.023c.11.955.502 1.878 1.104 2.626l.156-.125Zm2.479 1.675a5.007 5.007 0 0 1-2.479-1.675l-.156.125a5.208 5.208 0 0 0 2.579 1.742l.056-.192Zm.893.178a3.837 3.837 0 0 1-.892-.178l-.058.191c.303.092.616.168.938.186l.012-.2Zm.102 1.569c.002-.49.003-.98-.008-1.472l-.2.005c.011.488.01.976.008 1.466h.2Zm-.001.815V20.3h-.2c0 .272-.001.544 0 .817l.2-.001Zm0 3.284v-3.284h-.2v3.284h.2Zm.211.42a.496.496 0 0 1-.211-.418l-.2-.004a.696.696 0 0 0 .299.588l.112-.165Zm.61-.075a.476.476 0 0 1-.608.077l-.116.163a.676.676 0 0 0 .872-.105l-.147-.135Zm5.836-5.838-5.832 5.835.141.141 5.833-5.834-.142-.142Zm.26-.105a.317.317 0 0 0-.262.108l.146.136c.033-.034.067-.048.095-.045l.02-.2Zm6.315 0h-6.326v.2h6.326v-.2Zm.43 0a15.48 15.48 0 0 0-.431 0l.002.2c.142-.002.284-.002.428 0v-.2Zm1.537-.1c-.5.104-1.013.102-1.537.1l-.001.2c.52.002 1.054.005 1.578-.104l-.04-.196Zm1.818-.774a5.101 5.101 0 0 1-1.82.774l.043.196a5.303 5.303 0 0 0 1.89-.805l-.113-.165Zm1.898-2.422a5.093 5.093 0 0 1-1.898 2.422l.113.165a5.293 5.293 0 0 0 1.972-2.518l-.187-.07Zm.311-1.795a5.019 5.019 0 0 1-.311 1.795l.187.07a5.2 5.2 0 0 0 .324-1.867l-.2.002Zm.001-2.541v2.54h.2v-2.54h-.2Zm0-5.076c.002 1.69.001 3.383 0 5.076h.2c.001-1.693.002-3.385 0-5.076h-.2Zm-1.644-3.682a5.041 5.041 0 0 1 1.643 3.682h.2a5.241 5.241 0 0 0-1.709-3.83l-.134.148Zm-3.372-1.308c1.237-.02 2.46.478 3.372 1.308l.134-.148c-.946-.861-2.217-1.382-3.509-1.36l.003.2ZM6.155 1.1c4.576 0 9.151 0 13.727.004v-.2C15.306.9 10.73.9 6.155.9v.2Zm-.803 1.22a4.73 4.73 0 0 1 1.046-.088l.004-.2a4.853 4.853 0 0 0-1.092.093l.042.196ZM3.155 3.64a3.876 3.876 0 0 1 2.196-1.318l-.04-.196c-.9.183-1.726.68-2.31 1.386l.154.128Zm-.91 2.49a3.87 3.87 0 0 1 .91-2.49l-.153-.129a4.07 4.07 0 0 0-.956 2.62l.2-.002Zm0 7.616V6.13h-.2v7.616h.2Zm.978 2.592a3.883 3.883 0 0 1-.977-2.592l-.2-.001a4.083 4.083 0 0 0 1.027 2.726l.15-.133Zm2.53 1.305a3.915 3.915 0 0 1-2.53-1.305l-.15.132a4.115 4.115 0 0 0 2.66 1.372l.02-.2Zm.193.007a2.27 2.27 0 0 1-.193-.007l-.02.199c.072.007.144.007.21.008l.003-.2Zm.509.087c-.17-.086-.355-.086-.51-.087l-.001.2c.162.001.299.004.421.066l.09-.18Zm.359.622a.67.67 0 0 0-.358-.622l-.091.178a.47.47 0 0 1 .25.434l.199.01Zm0 2.004c.001-.67.002-1.34 0-2.01l-.2.001c.002.669.001 1.339 0 2.009h.2Zm.004 2.679c-.004-.892-.004-1.786-.003-2.68h-.2c0 .894-.001 1.788.003 2.68h.2Zm1.489-1.73-1.66 1.66.141.14a6333.6 6333.6 0 0 1 1.66-1.659l-.141-.141Zm3.317-3.319c-1.104 1.106-2.21 2.213-3.317 3.319l.141.141c1.107-1.106 2.214-2.212 3.317-3.319l-.141-.14Zm.648-.34c-.283-.013-.5.181-.65.343l.146.136c.15-.16.31-.288.495-.28l.009-.2Zm7.644 0h-7.649v.2h7.65v-.2Zm3.333-1.972c-.665 1.182-1.976 1.982-3.332 1.972l-.001.2c1.432.01 2.81-.832 3.507-2.074l-.174-.098Zm.507-1.935a3.891 3.891 0 0 1-.507 1.935l.174.099a4.091 4.091 0 0 0 .533-2.035l-.2.001Zm0-7.546v7.546h.2V6.2h-.2Zm-.166-1.19c.118.384.17.785.166 1.189l.2.001a4.105 4.105 0 0 0-.175-1.25l-.191.06Zm-1.82-2.27a3.916 3.916 0 0 1 1.818 2.27l.192-.058a4.116 4.116 0 0 0-1.912-2.386l-.098.175Zm-1.926-.507a4 4 0 0 1 1.925.507l.1-.173a4.199 4.199 0 0 0-2.022-.534l-.003.2Zm-13.445 0h13.447v-.2H6.4v.2Z"
    />
    <path
    fill="currentColor"
    stroke="currentColor"
    stroke-width=".2"
    d="M7.643 6.5a.59.59 0 0 1 .434-.175c1.187 0 2.375.004 3.562 0 .206-.007.44-.003.597.15a.57.57 0 0 1 .084.759.586.586 0 0 1-.506.24c-.908-.003-1.816 0-2.725 0-.153 0-.31 0-.464-.01-.01.636 0 1.268-.004 1.904.982.004 1.967 0 2.948 0 .189.004.395-.024.566.077a.585.585 0 0 1 .29.587.575.575 0 0 1-.573.486h-3.23c.003.639-.011 1.278.006 1.918 1.073-.014 2.148 0 3.22-.007a.566.566 0 0 1 .56.408.577.577 0 0 1-.283.664c-.147.08-.322.056-.486.06-1.201-.004-2.4.003-3.6 0a.561.561 0 0 1-.56-.58c-.003-2.006 0-4.011-.003-6.013-.004-.171.042-.35.167-.468Zm7.778-.154c.206-.031.413-.017.619-.02.248.003.495-.015.74.034a2.083 2.083 0 0 1 1.439.979c.2.328.31.716.304 1.1 0 .293-.262.57-.563.548a.553.553 0 0 1-.53-.335c-.067-.171-.039-.36-.098-.53a.96.96 0 0 0-.943-.65c-.318.017-.643-.032-.954.03a.954.954 0 0 0-.72.899c-.02.457.34.904.8.96.385.028.776-.017 1.16.025.45.049.87.262 1.198.57a2.095 2.095 0 0 1-.154 3.164c-.38.308-.876.465-1.365.44-.461-.017-.943.06-1.383-.111-.838-.287-1.443-1.15-1.394-2.04.025-.308.339-.56.646-.504a.573.573 0 0 1 .461.388c.042.164.028.343.091.507.119.342.45.59.81.622.231.02.465.003.699.01.22.007.447-.024.636-.143a.956.956 0 0 0-.112-1.69c-.255-.11-.535-.078-.803-.081-.262-.004-.531.017-.786-.046a2.101 2.101 0 0 1-1.547-2.69c.24-.765.953-1.355 1.75-1.436Z"
    />
</svg>