<svg
    xmlns="http://www.w3.org/2000/svg"
    class="l-english"
    fill="none"
    height="24"
    stroke="currentColor"
    stroke-linecap="round"
    stroke-linejoin="round"
    stroke-width="0.5"
    viewBox="0 0 26 26"
    width="26"
>
    <path
    fill="currentColor"
    fill-rule="evenodd"
    d="M6.757 1.001c-.402 0-.806.014-1.207.056-1.545.164-2.976 1.094-3.781 2.419a5.374 5.374 0 0 0-.764 2.718A773.9 773.9 0 0 0 1 10.377c0 .93.002 1.859 0 2.789 0 .819.042 1.662.356 2.432.649 1.764 2.355 3.043 4.214 3.26v2.66c-.001.888-.002 1.775 0 2.662.003.044.004.089.005.133.003.123.006.245.064.355.095.233.384.387.628.314.202-.037.334-.183.466-.33a2.55 2.55 0 0 1 .141-.148c.936-.944 1.877-1.883 2.818-2.822.856-.854 1.712-1.708 2.564-2.567a1.5 1.5 0 0 0 .064-.057c.091-.087.189-.18.33-.138 1.328-.004 2.656-.003 3.985-.003h2.991c.848.003 1.71-.143 2.473-.53a5.168 5.168 0 0 0 2.526-2.736c.268-.655.366-1.363.373-2.067.002-1.075 0-2.15 0-3.224 0-1.075-.002-2.149 0-3.224.004-.617 0-1.241-.098-1.851-.26-1.642-1.39-3.11-2.9-3.796-.729-.342-1.534-.485-2.337-.488-2.15-.002-4.301 0-6.453 0-2.15 0-4.302.002-6.452 0Zm-.175 1.15c-.433.004-.868.007-1.29.108-1.44.29-2.648 1.468-3.004 2.89-.135.47-.137.961-.138 1.448l-.001.155c.005 1.163.004 2.324.003 3.486 0 1.161-.001 2.323.004 3.485 0 .788.213 1.58.656 2.231.7 1.105 1.977 1.792 3.282 1.823.307-.028.61.195.628.512.003.693.001 1.385 0 2.077-.003.89-.005 1.782.003 2.674 1.668-1.659 3.331-3.325 4.992-4.988l.067-.059c.12-.107.247-.22.414-.226 1.249-.002 2.498-.001 3.748 0h3.751c.527 0 1.068-.06 1.56-.258 1.37-.506 2.396-1.813 2.56-3.26.036-.378.034-.756.032-1.132l-.001-.265V6.578c-.003-.433-.007-.868-.108-1.29a3.898 3.898 0 0 0-1.503-2.328c-.726-.565-1.66-.83-2.575-.809H6.582Z"
    clip-rule="evenodd"
    />
    <path
    fill="currentColor"
    d="m5.55 1.057-.01-.1.01.1ZM6.757 1V.9 1ZM1.769 3.476l-.086-.052.086.052Zm-.764 2.718h-.1.1ZM1 10.377h.1H1Zm0 2.789H.9 1Zm.356 2.432.094-.034-.001-.003-.093.037Zm4.214 3.26h.1v-.09l-.089-.01-.011.1Zm0 2.66h-.1.1Zm0 2.662h-.1v.008l.1-.008Zm.005.133.1-.002-.1.002Zm.064.355.094-.038-.005-.01-.089.048Zm.628.314-.018-.1-.01.004.028.096Zm.466-.33-.074-.067.074.067Zm.141-.148.069.073.002-.003-.07-.07Zm2.818-2.822-.07-.071.07.07Zm2.564-2.567-.064-.076-.007.006.071.07Zm.064-.057-.07-.073.07.073Zm.33-.138-.028.096.014.004h.015v-.1Zm3.985-.003v-.1.1Zm2.991 0v-.1.1Zm2.473-.53-.043-.09h-.002l.045.09Zm2.526-2.736-.093-.038v.001l.093.037Zm.373-2.067h.1-.1Zm0-3.224h-.1.1Zm0-3.224-.1-.001h.1ZM24.9 5.285l-.098.015.098-.015ZM22 1.489l-.042.09v.001L22 1.489Zm-2.337-.488v-.1.1Zm-6.453 0v-.1.1ZM5.292 2.259l.02.098h.003l-.023-.098Zm1.29-.108v-.1H6.58v.1ZM2.288 5.15l.097.028v-.004l-.097-.024ZM2.15 6.597h.1-.1Zm-.001.155h-.1.1Zm.003 3.486h-.1.1Zm.004 3.485h.1-.1Zm.656 2.231.084-.054-.002-.002-.082.056Zm3.282 1.823-.003.1h.012l-.01-.1Zm.628.512h.1v-.005l-.1.005Zm0 2.077h.1-.1Zm.003 2.674-.1.001.002.238.169-.168-.07-.07Zm4.992-4.988-.065-.076-.006.006.07.07Zm.067-.059.067.075-.067-.075Zm.414-.226v-.1h-.004l.004.1Zm3.748 0v.1-.1Zm3.751 0v-.1.1Zm1.56-.258-.035-.094h-.003l.037.094Zm2.56-3.26.099.012v-.002l-.1-.01Zm.032-1.132h-.1.1Zm-.001-6.54h.1-.1Zm0 0-.1.001h.1Zm-.108-1.289-.098.02v.004l.098-.024ZM22.237 2.96l-.062.079.002.001.06-.08Zm-2.575-.809v.1h.003l-.003-.1Zm-13.08 0v-.1.1ZM5.56 1.156c.397-.041.798-.055 1.197-.055v-.2c-.404 0-.812.014-1.218.056l.021.2ZM1.854 3.528c.79-1.299 2.193-2.211 3.706-2.372L5.54.957c-1.578.168-3.035 1.116-3.857 2.467l.171.104Zm-.75 2.667a5.274 5.274 0 0 1 .75-2.668l-.171-.103a5.474 5.474 0 0 0-.778 2.77l.2.001Zm-.003 4.182c-.001-1.394-.002-2.788.004-4.182l-.2-.001C.899 7.589.9 8.984.9 10.377h.2Zm0 2.789c.002-.93 0-1.86 0-2.79h-.2c0 .93.002 1.86 0 2.79h.2Zm.349 2.395c-.306-.751-.349-1.578-.349-2.395h-.2c0 .82.042 1.68.363 2.47l.186-.075Zm4.132 3.197c-1.824-.212-3.496-1.468-4.131-3.194l-.188.069c.663 1.801 2.402 3.104 4.296 3.324l.023-.199Zm.089 2.76v-2.66h-.2v2.66h.2Zm0 2.662c-.002-.887-.001-1.774 0-2.661h-.2a786.77 786.77 0 0 0 0 2.661h.2Zm.005.131c0-.044-.002-.092-.006-.14l-.199.017c.003.04.004.082.005.128l.2-.005Zm.053.31c-.046-.085-.05-.183-.053-.31l-.2.005c.003.117.004.265.076.4l.177-.095Zm.51.265a.404.404 0 0 1-.296-.035.442.442 0 0 1-.21-.22l-.185.074a.64.64 0 0 0 .305.324.604.604 0 0 0 .444.048l-.057-.191Zm.42-.3c-.135.15-.246.268-.408.297l.035.197c.24-.043.395-.22.522-.36l-.148-.135Zm.148-.155a2.61 2.61 0 0 0-.147.154l.148.134c.047-.051.09-.1.136-.142l-.137-.146Zm2.816-2.82c-.942.94-1.883 1.879-2.819 2.823l.142.14c.935-.943 1.876-1.882 2.818-2.822l-.141-.141Zm2.563-2.566c-.852.858-1.708 1.712-2.563 2.566l.14.142c.857-.854 1.713-1.709 2.565-2.567l-.142-.141Zm.066-.06c-.022.02-.04.038-.06.054l.13.153.067-.062-.137-.145Zm.428-.16c-.205-.062-.346.082-.428.16l.137.145c.1-.095.156-.137.234-.114l.057-.192Zm3.957-.008c-1.33 0-2.658 0-3.986.003v.2c1.328-.004 2.656-.003 3.985-.003v-.2Zm2.99 0h-2.99v.2h2.99v-.2Zm2.428-.52c-.746.379-1.59.523-2.427.52l-.001.2c.859.003 1.737-.145 2.519-.54l-.09-.18Zm2.478-2.683a5.068 5.068 0 0 1-2.476 2.683l.087.18a5.268 5.268 0 0 0 2.575-2.79l-.186-.073Zm.366-2.031c-.007.696-.104 1.39-.366 2.03l.185.076c.275-.67.374-1.392.381-2.104l-.2-.002Zm0-3.223c0 1.074.002 2.149 0 3.224h.2c.002-1.075 0-2.15 0-3.224h-.2Zm0-3.225c-.002 1.076 0 2.15 0 3.225h.2c0-1.075-.002-2.149 0-3.224h-.2Zm-.096-1.834c.096.6.1 1.217.096 1.834l.2.001c.003-.616 0-1.248-.099-1.867l-.197.032ZM21.958 1.58c1.48.673 2.588 2.112 2.845 3.72L25 5.27c-.267-1.675-1.419-3.17-2.96-3.871l-.082.182Zm-2.296-.479c.79.003 1.582.144 2.295.479l.085-.182c-.745-.349-1.566-.493-2.38-.497v.2Zm-6.452 0c2.15 0 4.302-.002 6.452 0v-.2c-2.15-.002-4.301 0-6.453 0v.2Zm-6.454 0c2.15.002 4.302 0 6.454 0v-.2c-2.152 0-4.303.002-6.453 0v.2ZM5.315 2.357c.409-.098.833-.102 1.268-.106l-.002-.2c-.43.004-.878.007-1.313.111l.047.195Zm-2.93 2.816C2.732 3.787 3.91 2.64 5.311 2.357l-.039-.196c-1.48.297-2.716 1.505-3.08 2.964l.193.048ZM2.25 6.597c.001-.489.004-.967.135-1.42l-.193-.056c-.14.485-.14.991-.142 1.476h.2Zm-.001.156v-.156h-.2v.155h.2Zm.003 3.485c.001-1.162.002-2.324-.003-3.486h-.2c.005 1.163.004 2.324.003 3.486h.2Zm.004 3.485c-.005-1.162-.004-2.324-.004-3.485h-.2c0 1.161-.001 2.323.004 3.486l.2-.001Zm.638 2.175c-.43-.633-.638-1.404-.638-2.175h-.2c0 .805.217 1.617.673 2.287l.165-.112Zm3.202 1.779c-1.273-.03-2.518-.701-3.2-1.777l-.169.108c.72 1.134 2.028 1.837 3.364 1.869l.005-.2Zm.726.607c-.021-.382-.382-.639-.737-.607l.018.2c.26-.024.505.166.519.418l.2-.011Zm0 2.082c.001-.692.003-1.384 0-2.077h-.2c.003.693.001 1.384 0 2.077h.2Zm.003 2.673c-.008-.891-.006-1.782-.003-2.673h-.2c-.003.89-.005 1.782.003 2.675l.2-.002Zm4.82-5.057a2239.75 2239.75 0 0 1-4.99 4.987l.14.142c1.668-1.66 3.332-3.325 4.992-4.988l-.141-.141Zm.072-.063c-.023.02-.044.04-.065.057l.13.152.069-.06-.134-.15Zm.477-.252c-.209.007-.363.15-.477.252l.134.149c.125-.113.226-.197.35-.202l-.007-.2Zm3.752 0c-1.25-.001-2.5-.002-3.748 0v.2c1.249-.002 2.498-.001 3.748 0v-.2Zm3.751 0h-3.75v.2h3.75v-.2Zm1.522-.251c-.475.192-1.002.25-1.522.25v.2c.533 0 1.088-.06 1.597-.265l-.075-.185Zm2.498-3.178c-.16 1.41-1.16 2.684-2.495 3.177l.069.187c1.406-.518 2.457-1.857 2.625-3.341l-.199-.023Zm.032-1.12c.002.377.004.75-.032 1.122l.2.02c.036-.385.034-.768.032-1.144l-.2.001Zm-.001-.266.001.265h.2l-.001-.265h-.2Zm0-6.274v6.274h.2V6.578h-.2Zm0 0v.001l.2-.003-.2.003Zm-.105-1.266c.098.408.101.832.105 1.266l.2-.001c-.003-.43-.007-.878-.11-1.312l-.195.047ZM22.177 3.04a3.798 3.798 0 0 1 1.465 2.268l.196-.04a3.998 3.998 0 0 0-1.542-2.389l-.119.161Zm-2.512-.789c.894-.02 1.805.24 2.51.788l.123-.158c-.746-.58-1.704-.851-2.638-.83l.005.2Zm-13.083 0h13.08v-.2H6.582v.2Zm0 0h.001l-.002-.2.002.2Z"
    />
    <path
    fill="currentColor"
    stroke="currentColor"
    stroke-width=".2"
    d="M7.698 6.473c.171-.153.415-.129.628-.14 1.046-.003 2.093.004 3.14-.003.292.004.672-.017.857.262.237.3.056.833-.341.878-1.113.042-2.226 0-3.342.014-.004.638 0 1.28 0 1.917 1.106.01 2.211-.014 3.314.007.362.028.596.478.415.795-.098.282-.43.345-.694.345-1.012.017-2.024-.004-3.035.003-.004.628 0 1.255 0 1.883 1.046.007 2.093-.01 3.14.003.355-.049.704.286.641.645-.035.286-.31.533-.607.495-1.106.02-2.208-.004-3.314.01-.258-.017-.54.042-.767-.108-.234-.129-.258-.425-.244-.662-.004-1.917.003-3.834-.004-5.751-.007-.21.018-.474.213-.593Zm6 .105c.143-.234.481-.272.708-.153a.91.91 0 0 1 .303.327c.883 1.408 1.762 2.82 2.644 4.228.021-1.338-.01-2.68.014-4.019-.017-.37.36-.718.726-.592a.533.533 0 0 1 .411.557c.018 1.977 0 3.953.01 5.926.018.223-.045.47-.23.61a.554.554 0 0 1-.704-.028c-.223-.22-.349-.512-.52-.77-.781-1.241-1.548-2.492-2.34-3.73-.035 1.398.014 2.796-.021 4.193-.056.418-.66.614-.942.293-.206-.153-.192-.443-.199-.673-.003-1.802.007-3.6-.003-5.402.007-.255-.032-.554.143-.767Z"
    />
</svg>